<mxfile host="app.diagrams.net" modified="2023-07-26T10:57:37.534Z" agent="Mozilla/5.0 (Windows NT 10.0; Win64; x64) AppleWebKit/537.36 (KHTML, like Gecko) Chrome/115.0.0.0 Safari/537.36 Edg/115.0.1901.183" etag="m-HtCIphUg3vfGEE1YyX" version="21.6.5" type="github">
  <diagram name="第 1 页" id="OiHZQHzJA7vmVoL47oz3">
    <mxGraphModel dx="1379" dy="788" grid="1" gridSize="10" guides="1" tooltips="1" connect="1" arrows="1" fold="1" page="1" pageScale="1" pageWidth="827" pageHeight="1169" math="0" shadow="0">
      <root>
        <mxCell id="0" />
        <mxCell id="1" parent="0" />
        <mxCell id="T2Yif6aa_hEu414LSNYv-5" style="edgeStyle=orthogonalEdgeStyle;rounded=0;orthogonalLoop=1;jettySize=auto;html=1;exitX=1;exitY=0.5;exitDx=0;exitDy=0;" edge="1" parent="1" source="T2Yif6aa_hEu414LSNYv-1" target="T2Yif6aa_hEu414LSNYv-2">
          <mxGeometry relative="1" as="geometry" />
        </mxCell>
        <mxCell id="T2Yif6aa_hEu414LSNYv-1" value="源" style="ellipse;whiteSpace=wrap;html=1;aspect=fixed;" vertex="1" parent="1">
          <mxGeometry x="80" y="340" width="50" height="50" as="geometry" />
        </mxCell>
        <mxCell id="T2Yif6aa_hEu414LSNYv-2" value="已发现的&lt;br&gt;ODNS" style="ellipse;whiteSpace=wrap;html=1;aspect=fixed;" vertex="1" parent="1">
          <mxGeometry x="160" y="325" width="80" height="80" as="geometry" />
        </mxCell>
        <mxCell id="T2Yif6aa_hEu414LSNYv-3" value="RDNS池" style="swimlane;whiteSpace=wrap;html=1;" vertex="1" parent="1">
          <mxGeometry x="270" y="260" width="200" height="200" as="geometry" />
        </mxCell>
        <mxCell id="T2Yif6aa_hEu414LSNYv-4" value="我们搭建的&lt;br&gt;ADNS" style="ellipse;whiteSpace=wrap;html=1;aspect=fixed;" vertex="1" parent="1">
          <mxGeometry x="540" y="310" width="80" height="80" as="geometry" />
        </mxCell>
      </root>
    </mxGraphModel>
  </diagram>
</mxfile>
